# 3ds Max Wavefront OBJ Exporter v0.99 - (c)2007 guruware
# File Created: 19.06.2023 14:00:21

mtllib lavka_1.mtl

#
# object lavka_1
#

v  21.6099 -8.4851 4.9216
v  21.6099 -8.4851 -5.1827
v  123.0134 -5.1954 -5.1827
v  123.0134 -5.1954 4.9216
v  123.0134 3.6481 -5.1827
v  21.6099 0.3584 -5.1827
v  21.6099 0.3584 4.9216
v  123.0134 3.6481 4.9216
v  -123.0134 -5.1954 -5.1827
v  -123.0134 -5.1954 4.9216
v  -123.0134 3.6481 4.9216
v  -123.0134 3.6481 -5.1827
v  94.0014 19.6843 -20.2103
v  94.0015 -28.4340 -27.9058
v  94.0015 -28.4340 -10.2165
v  94.0015 -13.0955 -0.0000
v  94.0015 -28.4340 10.2165
v  94.0015 -28.4340 27.9058
v  94.0014 19.6843 20.2100
v  103.7372 -28.4340 27.9056
v  103.7372 19.6843 20.2099
v  103.7372 19.6843 -20.2104
v  103.7372 -28.4340 -27.9058
v  103.7372 -28.4340 10.2164
v  103.7372 -13.0955 -0.0001
v  103.7372 -28.4340 -10.2166
v  123.0134 19.5905 25.0327
v  -123.0134 19.5905 25.0328
v  -123.0134 19.5905 -25.2938
v  123.0134 19.5905 -25.2938
v  123.0134 26.2065 25.0327
v  123.0134 28.4340 -25.2938
v  -122.3537 28.4340 -23.4506
v  -123.0134 28.4340 25.0328
v  -105.7781 19.6843 -20.2103
v  -105.7781 -28.4340 -27.9058
v  -105.7781 -28.4340 -10.2165
v  -105.7781 -13.0955 0.0000
v  -105.7781 -28.4340 10.2165
v  -105.7780 -28.4340 27.9058
v  -105.7781 19.6843 20.2100
v  -96.0423 -28.4340 27.9057
v  -96.0423 19.6843 20.2099
v  -96.0423 19.6843 -20.2104
v  -96.0423 -28.4340 -27.9058
v  -96.0423 -28.4340 10.2164
v  -96.0423 -13.0955 -0.0001
v  -96.0423 -28.4340 -10.2165
# 48 vertices

vn 0.0000 -1.0000 -0.0000
vn 0.0000 1.0000 -0.0000
vn 1.0000 0.0000 -0.0000
vn -0.0000 0.0000 -1.0000
vn -1.0000 0.0000 -0.0000
vn 0.0000 0.0000 1.0000
vn -1.0000 -0.0000 0.0000
vn 0.0000 0.1579 0.9875
vn -0.0000 0.1579 -0.9875
vn 1.0000 -0.0000 -0.0000
vn 0.0000 -0.5544 0.8323
vn -0.0000 -0.5544 -0.8323
vn -0.0227 -0.9997 -0.0000
vn 0.0227 0.9997 -0.0000
# 14 vertex normals

vt 0.7492 0.3582 0.0000
vt 0.6762 0.3582 0.0000
vt 0.6762 0.0150 0.0000
vt 0.7492 0.0150 0.0000
vt 0.5850 0.7014 0.0000
vt 0.5850 0.3582 0.0000
vt 0.6579 0.3582 0.0000
vt 0.6579 0.7014 0.0000
vt 0.8039 0.8906 0.0000
vt 0.8377 0.8906 0.0000
vt 0.8377 0.9160 0.0000
vt 0.8039 0.9160 0.0000
vt 0.8397 0.3549 0.0000
vt 0.7674 0.3549 0.0000
vt 0.7674 0.0150 0.0000
vt 0.8397 0.0150 0.0000
vt 0.8587 0.8906 0.0000
vt 0.8924 0.8906 0.0000
vt 0.8924 0.9160 0.0000
vt 0.8587 0.9160 0.0000
vt 0.9309 0.3549 0.0000
vt 0.8587 0.3549 0.0000
vt 0.8587 0.0150 0.0000
vt 0.9309 0.0150 0.0000
vt 0.0382 0.9586 0.0000
vt 0.0150 0.8039 0.0000
vt 0.0684 0.8039 0.0000
vt 0.1026 0.8532 0.0000
vt 0.1334 0.8039 0.0000
vt 0.1835 0.8039 0.0000
vt 0.1603 0.9586 0.0000
vt 0.9850 0.0150 0.0000
vt 0.9850 0.1626 0.0000
vt 0.9499 0.1626 0.0000
vt 0.9499 0.0150 0.0000
vt 0.9499 0.6824 0.0000
vt 0.9499 0.5349 0.0000
vt 0.9850 0.5349 0.0000
vt 0.9850 0.6824 0.0000
vt 0.6220 0.8765 0.0000
vt 0.5987 0.7218 0.0000
vt 0.6521 0.7218 0.0000
vt 0.6863 0.7712 0.0000
vt 0.7171 0.7218 0.0000
vt 0.7673 0.7218 0.0000
vt 0.7440 0.8765 0.0000
vt 0.9620 0.8267 0.0000
vt 0.9620 0.8661 0.0000
vt 0.9134 0.8661 0.0000
vt 0.9134 0.8267 0.0000
vt 0.9620 0.9055 0.0000
vt 0.9134 0.9055 0.0000
vt 0.0150 0.7757 0.0000
vt 0.0150 0.0150 0.0000
vt 0.1804 0.0150 0.0000
vt 0.1804 0.7757 0.0000
vt 0.3787 0.7649 0.0000
vt 0.2020 0.7661 0.0000
vt 0.2020 0.0181 0.0000
vt 0.3719 0.0150 0.0000
vt 0.8906 0.7218 0.0000
vt 0.8906 0.8623 0.0000
vt 0.8495 0.8623 0.0000
vt 0.8495 0.7218 0.0000
vt 0.5664 0.0150 0.0000
vt 0.5664 0.7336 0.0000
vt 0.4893 0.7336 0.0000
vt 0.4893 0.0150 0.0000
vt 0.8269 0.7218 0.0000
vt 0.8269 0.8629 0.0000
vt 0.7857 0.8629 0.0000
vt 0.7857 0.7218 0.0000
vt 0.4710 0.0150 0.0000
vt 0.4710 0.7441 0.0000
vt 0.4164 0.7441 0.0000
vt 0.3981 0.0150 0.0000
vt 0.2298 0.9404 0.0000
vt 0.2065 0.7857 0.0000
vt 0.2600 0.7857 0.0000
vt 0.2941 0.8350 0.0000
vt 0.3249 0.7857 0.0000
vt 0.3751 0.7857 0.0000
vt 0.3518 0.9404 0.0000
vt 0.9850 0.1883 0.0000
vt 0.9850 0.3358 0.0000
vt 0.9499 0.3358 0.0000
vt 0.9499 0.1883 0.0000
vt 0.9499 0.5091 0.0000
vt 0.9499 0.3616 0.0000
vt 0.9850 0.3616 0.0000
vt 0.9850 0.5091 0.0000
vt 0.4304 0.9176 0.0000
vt 0.4072 0.7629 0.0000
vt 0.4606 0.7629 0.0000
vt 0.4947 0.8122 0.0000
vt 0.5256 0.7629 0.0000
vt 0.5757 0.7629 0.0000
vt 0.5525 0.9176 0.0000
vt 0.9620 0.7218 0.0000
vt 0.9620 0.7612 0.0000
vt 0.9134 0.7612 0.0000
vt 0.9134 0.7218 0.0000
vt 0.9620 0.8006 0.0000
vt 0.9134 0.8006 0.0000
vt 0.7492 0.7014 0.0000
vt 0.6762 0.7014 0.0000
vt 0.5850 0.0150 0.0000
vt 0.6579 0.0150 0.0000
vt 0.8397 0.6948 0.0000
vt 0.7674 0.6948 0.0000
vt 0.9309 0.6948 0.0000
vt 0.8587 0.6948 0.0000
# 112 texture coords

o lavka_1
g lavka_1
usemtl wire_000000000
s off
f 1/1/1 2/2/1 3/3/1 4/4/1 
f 5/5/2 6/6/2 7/7/2 8/8/2 
f 4/9/3 3/10/3 5/11/3 8/12/3 
f 2/13/4 6/14/4 5/15/4 3/16/4 
f 9/17/5 10/18/5 11/19/5 12/20/5 
f 1/21/6 7/22/6 11/23/6 10/24/6 
f 13/25/7 14/26/7 15/27/7 16/28/7 17/29/7 18/30/7 19/31/7 
f 20/32/8 21/33/8 19/34/8 18/35/8 
f 22/36/9 23/37/9 14/38/9 13/39/9 
f 21/40/10 20/41/10 24/42/10 25/43/10 26/44/10 23/45/10 22/46/10 
f 26/47/11 25/48/11 16/49/11 15/50/11 
f 25/48/12 24/51/12 17/52/12 16/49/12 
f 27/53/1 28/54/1 29/55/1 30/56/1 
f 31/57/2 32/58/2 33/59/2 34/60/2 
f 27/61/3 30/62/3 32/63/3 31/64/3 
f 30/65/4 29/66/4 33/67/4 32/68/4 
f 29/69/5 28/70/5 34/71/5 33/72/5 
f 28/73/6 27/74/6 31/75/6 34/76/6 
f 35/77/7 36/78/7 37/79/7 38/80/7 39/81/7 40/82/7 41/83/7 
f 42/84/8 43/85/8 41/86/8 40/87/8 
f 44/88/9 45/89/9 36/90/9 35/91/9 
f 43/92/10 42/93/10 46/94/10 47/95/10 48/96/10 45/97/10 44/98/10 
f 48/99/11 47/100/11 38/101/11 37/102/11 
f 47/100/12 46/103/12 39/104/12 38/101/12 
f 10/105/13 9/106/13 2/2/13 1/1/13 
f 12/107/14 11/108/14 7/7/14 6/6/14 
f 9/109/4 12/110/4 6/14/4 2/13/4 
f 4/111/6 8/112/6 7/22/6 1/21/6 
# 28 polygons

